<svg width="33" height="33" viewBox="0 0 33 33" fill="none" xmlns="http://www.w3.org/2000/svg">
<g id="heart">
<g id="Vector" filter="url(#filter0_d_47_66)">
<path d="M22.1348 10.3534C21.7927 9.96101 21.3865 9.64974 20.9395 9.43737C20.4925 9.225 20.0133 9.11569 19.5294 9.11569C19.0455 9.11569 18.5664 9.225 18.1193 9.43737C17.6723 9.64974 17.2661 9.96101 16.9241 10.3534L16.2141 11.1674L15.5042 10.3534C14.8132 9.56117 13.876 9.1161 12.8988 9.1161C11.9216 9.1161 10.9844 9.56117 10.2935 10.3534C9.60248 11.1456 9.21429 12.2201 9.21429 13.3405C9.21429 14.4609 9.60248 15.5353 10.2935 16.3276L11.0034 17.1415L16.2141 23.1157L21.4248 17.1415L22.1348 16.3276C22.477 15.9354 22.7485 15.4697 22.9337 14.9572C23.119 14.4446 23.2143 13.8953 23.2143 13.3405C23.2143 12.7857 23.119 12.2363 22.9337 11.7238C22.7485 11.2113 22.477 10.7456 22.1348 10.3534Z" fill="#267533"/>
</g>
<circle id="Ellipse 5" cx="16.2143" cy="16.1157" r="14" stroke="#267533" stroke-width="2"/>
</g>
<defs>
<filter id="filter0_d_47_66" x="5.21429" y="9.11569" width="22" height="22" filterUnits="userSpaceOnUse" color-interpolation-filters="sRGB">
<feFlood flood-opacity="0" result="BackgroundImageFix"/>
<feColorMatrix in="SourceAlpha" type="matrix" values="0 0 0 0 0 0 0 0 0 0 0 0 0 0 0 0 0 0 127 0" result="hardAlpha"/>
<feOffset dy="4"/>
<feGaussianBlur stdDeviation="2"/>
<feComposite in2="hardAlpha" operator="out"/>
<feColorMatrix type="matrix" values="0 0 0 0 0 0 0 0 0 0 0 0 0 0 0 0 0 0 0.25 0"/>
<feBlend mode="normal" in2="BackgroundImageFix" result="effect1_dropShadow_47_66"/>
<feBlend mode="normal" in="SourceGraphic" in2="effect1_dropShadow_47_66" result="shape"/>
</filter>
</defs>
</svg>
