<svg width="23" height="24" viewBox="0 0 23 24" fill="none" xmlns="http://www.w3.org/2000/svg">
<g id="heart">
<path id="Vector" d="M19.5837 4.52762C19.1037 4.02575 18.5339 3.62763 17.9066 3.35601C17.2794 3.08439 16.6071 2.94458 15.9282 2.94458C15.2493 2.94458 14.577 3.08439 13.9498 3.35601C13.3225 3.62763 12.7527 4.02575 12.2727 4.52762L11.2766 5.56869L10.2805 4.52762C9.311 3.51435 7.99608 2.94511 6.62501 2.94511C5.25393 2.94511 3.93901 3.51435 2.96951 4.52762C2.00001 5.54089 1.45535 6.91518 1.45535 8.34816C1.45535 9.78114 2.00001 11.1554 2.96951 12.1687L3.96561 13.2098L11.2766 20.8508L18.5876 13.2098L19.5837 12.1687C20.0639 11.6671 20.4448 11.0715 20.7047 10.4159C20.9646 9.76038 21.0984 9.05774 21.0984 8.34816C21.0984 7.63857 20.9646 6.93594 20.7047 6.2804C20.4448 5.62486 20.0639 5.02926 19.5837 4.52762Z" stroke="#333333" stroke-width="1.6" stroke-linecap="round" stroke-linejoin="round"/>
</g>
</svg>
